<svg width="24" height="24" viewBox="0 0 24 24" fill="none" xmlns="http://www.w3.org/2000/svg">
<path d="M16.19 2H7.81C4.17 2 2 4.17 2 7.81V16.18C2 19.83 4.17 22 7.81 22H16.18C19.82 22 21.99 19.83 21.99 16.19V7.81C22 4.17 19.83 2 16.19 2Z" fill="#1E1E1E"/>
<path d="M15.5 10.13C16.5383 10.13 17.38 9.28829 17.38 8.25C17.38 7.2117 16.5383 6.37 15.5 6.37C14.4617 6.37 13.62 7.2117 13.62 8.25C13.62 9.28829 14.4617 10.13 15.5 10.13Z" fill="white"/>
<path d="M8.5 10.13C9.53829 10.13 10.38 9.28829 10.38 8.25C10.38 7.2117 9.53829 6.37 8.5 6.37C7.4617 6.37 6.62 7.2117 6.62 8.25C6.62 9.28829 7.4617 10.13 8.5 10.13Z" fill="white"/>
<path d="M15.6 12.92H8.4C7.7 12.92 7.13 13.49 7.13 14.2C7.13 16.89 9.32 19.08 12.01 19.08C14.7 19.08 16.89 16.89 16.89 14.2C16.88 13.5 16.3 12.92 15.6 12.92Z" fill="white"/>
</svg>
