<svg width="25" height="25" viewBox="0 0 25 25" fill="none" xmlns="http://www.w3.org/2000/svg">
<path d="M12.5 13.6719C13.1472 13.6719 13.6719 13.1472 13.6719 12.5C13.6719 11.8528 13.1472 11.3281 12.5 11.3281C11.8528 11.3281 11.3281 11.8528 11.3281 12.5C11.3281 13.1472 11.8528 13.6719 12.5 13.6719Z" fill="#1E1E1E"/>
<path d="M12.5 2.34375C6.8999 2.34375 2.34375 6.8999 2.34375 12.5C2.34375 18.1001 6.8999 22.6562 12.5 22.6562C18.1001 22.6562 22.6562 18.1001 22.6562 12.5C22.6562 6.8999 18.1001 2.34375 12.5 2.34375ZM17.6304 7.87744L15.3413 13.6001C15.1841 13.9931 14.9487 14.3501 14.6494 14.6494C14.3501 14.9487 13.9931 15.1841 13.6001 15.3413L7.87744 17.6304C7.80645 17.6588 7.72869 17.6657 7.65378 17.6504C7.57888 17.635 7.51013 17.598 7.45607 17.5439C7.402 17.4899 7.36499 17.4211 7.34962 17.3462C7.33426 17.2713 7.34121 17.1935 7.36963 17.1226L9.65869 11.3999C9.81587 11.0069 10.0513 10.6499 10.3506 10.3506C10.6499 10.0513 11.0069 9.81587 11.3999 9.65869L17.1226 7.36963C17.1935 7.34121 17.2713 7.33426 17.3462 7.34962C17.4211 7.36499 17.4899 7.402 17.5439 7.45607C17.598 7.51013 17.635 7.57888 17.6504 7.65378C17.6657 7.72869 17.6588 7.80645 17.6304 7.87744Z" fill="#1E1E1E"/>
</svg>
