<svg width="54" height="53" viewBox="0 0 54 53" fill="none" xmlns="http://www.w3.org/2000/svg">
<path fill-rule="evenodd" clip-rule="evenodd" d="M5.0625 26.5C5.0625 14.6126 14.8883 4.96875 27 4.96875C39.1117 4.96875 48.9375 14.6126 48.9375 26.5C48.9375 38.3874 39.1117 48.0312 27 48.0312C14.8883 48.0312 5.0625 38.3874 5.0625 26.5ZM27 8.28125C16.7523 8.28125 8.4375 16.4421 8.4375 26.5C8.4375 36.5579 16.7523 44.7188 27 44.7188C37.2477 44.7188 45.5625 36.5579 45.5625 26.5C45.5625 16.4421 37.2477 8.28125 27 8.28125Z" fill="#9DB2CE"/>
<path d="M36.9847 15.6236L24.6238 20.4764C23.7748 20.8096 23.0037 21.3086 22.3572 21.9432C21.7107 22.5777 21.2023 23.3346 20.8628 24.1678L15.9184 36.2998C15.857 36.4503 15.842 36.6152 15.8752 36.774C15.9084 36.9328 15.9883 37.0785 16.1051 37.1931C16.2219 37.3078 16.3704 37.3862 16.5322 37.4188C16.694 37.4514 16.8619 37.4366 17.0153 37.3764L29.3762 32.5236C30.2252 32.1904 30.9963 31.6913 31.6428 31.0568C32.2893 30.4223 32.7977 29.6654 33.1372 28.8322L38.0816 16.7002C38.143 16.5497 38.158 16.3848 38.1248 16.226C38.0916 16.0672 38.0117 15.9215 37.8949 15.8069C37.7781 15.6922 37.6296 15.6138 37.4678 15.5812C37.306 15.5486 37.1381 15.5634 36.9847 15.6236ZM27 28.9844C26.4994 28.9844 26.01 28.8387 25.5937 28.5657C25.1775 28.2927 24.853 27.9047 24.6614 27.4507C24.4698 26.9968 24.4197 26.4972 24.5174 26.0153C24.6151 25.5334 24.8561 25.0907 25.2101 24.7433C25.5641 24.3958 26.0152 24.1592 26.5062 24.0634C26.9972 23.9675 27.5061 24.0167 27.9687 24.2047C28.4312 24.3928 28.8265 24.7112 29.1047 25.1197C29.3828 25.5283 29.5312 26.0086 29.5312 26.5C29.5312 27.1589 29.2646 27.7908 28.7899 28.2567C28.3152 28.7226 27.6713 28.9844 27 28.9844Z" fill="#9DB2CE"/>
</svg>
