<svg width="186" height="64" viewBox="0 0 186 64" fill="none" xmlns="http://www.w3.org/2000/svg">
<g filter="url(#filter0_dd_917_7276)">
<path d="M160.071 8.51471C160.962 8.51471 161.408 7.43757 160.778 6.8076L154.707 0.736529C154.317 0.346004 153.683 0.346005 153.293 0.736529L147.222 6.8076C146.592 7.43757 147.038 8.51471 147.929 8.51471H160.071Z" fill="#363636"/>
<rect x="51" y="6" width="123" height="34" rx="8" fill="#363636"/>
<path d="M69.0781 24.6152H67.7949V22.7461H69.0781V24.6152ZM73.2676 23.3555H63.623V22.3066H73.2676V23.3555ZM68.4336 24.2402C69.1992 24.2402 69.8555 24.3145 70.4023 24.4629C70.9531 24.6074 71.373 24.8223 71.6621 25.1074C71.9551 25.3926 72.1016 25.7363 72.1016 26.1387C72.1016 26.5371 71.9551 26.877 71.6621 27.1582C71.373 27.4395 70.9531 27.6543 70.4023 27.8027C69.8555 27.9512 69.1992 28.0254 68.4336 28.0254C67.6641 28.0254 67.0039 27.9512 66.4531 27.8027C65.9023 27.6543 65.4785 27.4395 65.1816 27.1582C64.8887 26.877 64.7422 26.5371 64.7422 26.1387C64.7422 25.7363 64.8887 25.3926 65.1816 25.1074C65.4746 24.8223 65.8965 24.6074 66.4473 24.4629C67.002 24.3145 67.6641 24.2402 68.4336 24.2402ZM68.4336 25.2305C67.918 25.2305 67.4844 25.2656 67.1328 25.3359C66.7852 25.4062 66.5215 25.5078 66.3418 25.6406C66.1621 25.7734 66.0723 25.9395 66.0723 26.1387C66.0723 26.3262 66.1621 26.4883 66.3418 26.625C66.5215 26.7578 66.7871 26.8613 67.1387 26.9355C67.4902 27.0059 67.9219 27.041 68.4336 27.041C68.9375 27.041 69.3672 27.0059 69.7227 26.9355C70.0781 26.8613 70.3457 26.7578 70.5254 26.625C70.7051 26.4883 70.7949 26.3262 70.7949 26.1387C70.7949 25.9395 70.7051 25.7734 70.5254 25.6406C70.3457 25.5078 70.0801 25.4062 69.7285 25.3359C69.377 25.2656 68.9453 25.2305 68.4336 25.2305ZM68.709 18.6914C68.709 19.2305 68.5371 19.7227 68.1934 20.168C67.8535 20.6094 67.3672 20.9746 66.7344 21.2637C66.1055 21.5527 65.3691 21.7402 64.5254 21.8262L64.0859 20.8008C64.7852 20.7305 65.3965 20.5918 65.9199 20.3848C66.4473 20.1777 66.8516 19.9258 67.1328 19.6289C67.4141 19.3281 67.5547 19.0156 67.5547 18.6914V18.3984H68.709V18.6914ZM69.3184 18.6914C69.3184 19.0156 69.457 19.3281 69.7344 19.6289C70.0156 19.9258 70.4219 20.1777 70.9531 20.3848C71.4844 20.5918 72.1055 20.7305 72.8164 20.8008L72.3535 21.8262C71.5215 21.7402 70.7871 21.5527 70.1504 21.2637C69.5137 20.9746 69.0215 20.6094 68.6738 20.168C68.3262 19.7227 68.1523 19.2305 68.1523 18.6914V18.3984H69.3184V18.6914ZM72.4004 18.9551H64.4961V17.918H72.4004V18.9551ZM83.6387 23.8301H73.9941V22.7754H83.6387V23.8301ZM79.4551 23.0332H78.1484V21.3281H79.4551V23.0332ZM82.4609 28.0312H81.1543V25.6934H75.0605V24.668H82.4609V28.0312ZM76.5254 18.7617H81.0957V17.707H82.3906V21.7559H75.2422V17.707H76.5254V18.7617ZM81.0957 20.7246V19.7285H76.5254V20.7246H81.0957ZM90.5293 21.8203H85.3262V20.7773H90.5293V21.8203ZM88.5488 23.4902H87.248V21.4395H88.5488V23.4902ZM90.4414 19.1602H86.6328V21.2227H85.3262V18.1055H90.4414V19.1602ZM93.1953 25.4004H91.877V17.4551H93.1953V25.4004ZM93.5 27.8438H86.0996V26.7773H93.5V27.8438ZM87.4121 27.2051H86.0996V24.8262H87.4121V27.2051ZM84.4121 23.1152C85.7559 23.1074 86.9727 23.0859 88.0625 23.0508C89.1523 23.0117 90.1797 22.9395 91.1445 22.834L91.2441 23.7773C90.2168 23.918 89.1445 24.0156 88.0273 24.0703C86.9102 24.1211 85.7637 24.1465 84.5879 24.1465L84.4121 23.1152ZM106.408 28.0605H105.102V25.0547H99.1895V23.9883H106.408V28.0605ZM106.408 23.5195H105.102V17.4668H106.408V23.5195ZM99.5234 22.3652H98.2168V18.0352H99.5234V22.3652ZM99.1133 21.7852C99.9492 21.7852 100.781 21.75 101.609 21.6797C102.438 21.6055 103.27 21.4844 104.105 21.3164L104.27 22.3887C103.395 22.5527 102.531 22.6738 101.68 22.752C100.832 22.8262 99.9766 22.8633 99.1133 22.8633H98.2168V21.7852H99.1133ZM109.707 24.6855H108.406V18.5098H109.707V24.6855ZM109.121 24.334C109.832 24.334 110.471 24.3125 111.037 24.2695C111.604 24.2266 112.186 24.1406 112.783 24.0117L112.959 25.1133C112.334 25.2461 111.725 25.3379 111.131 25.3887C110.541 25.4355 109.871 25.457 109.121 25.4531H108.406V24.334H109.121ZM117.096 28.0312H115.865V17.4492H117.096V28.0312ZM113.902 21.9316H111.383V20.877H113.902V21.9316ZM114.834 27.5449H113.598V17.6719H114.834V27.5449ZM127.15 23.4668H125.844V17.4609H127.15V23.4668ZM127.15 27.9082H120.131V23.9766H127.15V27.9082ZM121.414 26.8594H125.873V25.0137H121.414V26.8594ZM121.379 17.9707C121.922 17.9707 122.408 18.0762 122.838 18.2871C123.271 18.498 123.611 18.7969 123.857 19.1836C124.107 19.5664 124.232 20.0039 124.232 20.4961C124.232 20.9727 124.107 21.4023 123.857 21.7852C123.611 22.168 123.271 22.4668 122.838 22.6816C122.408 22.8965 121.922 23.0039 121.379 23.0039C120.836 23.0039 120.348 22.8965 119.914 22.6816C119.484 22.4668 119.145 22.168 118.895 21.7852C118.648 21.4023 118.525 20.9727 118.525 20.4961C118.525 20.0039 118.648 19.5664 118.895 19.1836C119.145 18.7969 119.484 18.498 119.914 18.2871C120.348 18.0762 120.836 17.9707 121.379 17.9707ZM121.379 19.0664C121.07 19.0625 120.797 19.1191 120.559 19.2363C120.32 19.3496 120.133 19.5156 119.996 19.7344C119.863 19.9531 119.797 20.207 119.797 20.4961C119.797 20.7734 119.863 21.0195 119.996 21.2344C120.133 21.4453 120.32 21.6094 120.559 21.7266C120.797 21.8438 121.07 21.9023 121.379 21.9023C121.684 21.9023 121.953 21.8438 122.188 21.7266C122.426 21.6094 122.611 21.4453 122.744 21.2344C122.877 21.0195 122.943 20.7734 122.943 20.4961C122.943 20.207 122.877 19.9531 122.744 19.7344C122.615 19.5156 122.432 19.3496 122.193 19.2363C121.955 19.1191 121.684 19.0625 121.379 19.0664ZM137.521 23.1387H136.215V17.4492H137.521V23.1387ZM131.803 24.709H136.221V23.625H137.521V27.9082H130.52V23.625H131.803V24.709ZM136.221 26.8535V25.7285H131.803V26.8535H136.221ZM131.75 17.918C132.293 17.9141 132.779 18.0156 133.209 18.2227C133.643 18.4297 133.982 18.7246 134.229 19.1074C134.479 19.4863 134.604 19.918 134.604 20.4023C134.604 20.8711 134.479 21.293 134.229 21.668C133.982 22.043 133.643 22.3359 133.209 22.5469C132.779 22.7578 132.293 22.8652 131.75 22.8691C131.207 22.8652 130.719 22.7578 130.285 22.5469C129.855 22.3359 129.516 22.043 129.266 21.668C129.02 21.293 128.896 20.8711 128.896 20.4023C128.896 19.918 129.02 19.4863 129.266 19.1074C129.516 18.7246 129.855 18.4297 130.285 18.2227C130.719 18.0156 131.207 17.9141 131.75 17.918ZM131.75 19.0078C131.441 19 131.168 19.0547 130.93 19.1719C130.691 19.2891 130.504 19.4531 130.367 19.6641C130.234 19.875 130.168 20.1211 130.168 20.4023C130.168 20.6797 130.234 20.9238 130.367 21.1348C130.504 21.3418 130.691 21.5039 130.93 21.6211C131.168 21.7344 131.441 21.793 131.75 21.7969C132.055 21.793 132.326 21.7344 132.564 21.6211C132.803 21.5039 132.986 21.3418 133.115 21.1348C133.248 20.9238 133.314 20.6797 133.314 20.4023C133.314 20.1211 133.248 19.875 133.115 19.6641C132.982 19.4531 132.797 19.2891 132.559 19.1719C132.324 19.0547 132.055 19 131.75 19.0078ZM147.916 28.0312H146.621V17.4492H147.916V28.0312ZM140.973 25.0371H139.684V18.4746H140.973V25.0371ZM140.592 24.2754C141.436 24.2754 142.281 24.2383 143.129 24.1641C143.977 24.0859 144.822 23.9629 145.666 23.7949L145.836 24.8789C144.957 25.0586 144.086 25.1875 143.223 25.2656C142.359 25.3438 141.482 25.3828 140.592 25.3828H139.684V24.2754H140.592ZM157.742 28.0605H156.441V17.4492H157.742V28.0605ZM159.377 22.541H157.449V21.4688H159.377V22.541ZM150.752 24.3809C151.732 24.3848 152.594 24.3613 153.336 24.3105C154.082 24.2598 154.834 24.166 155.592 24.0293L155.738 25.1309C154.973 25.2676 154.213 25.3574 153.459 25.4004C152.709 25.4434 151.807 25.4629 150.752 25.459H149.879V24.3809H150.752ZM154.836 19.5117H151.18V24.9082H149.879V18.4512H154.836V19.5117ZM161.105 27.0938C160.941 27.0938 160.789 27.0527 160.648 26.9707C160.508 26.8848 160.396 26.7734 160.314 26.6367C160.236 26.4961 160.197 26.3438 160.197 26.1797C160.197 26.0195 160.236 25.8711 160.314 25.7344C160.396 25.5938 160.508 25.4844 160.648 25.4062C160.789 25.3242 160.941 25.2832 161.105 25.2832C161.262 25.2832 161.41 25.3242 161.551 25.4062C161.691 25.4844 161.803 25.5938 161.885 25.7344C161.967 25.8711 162.008 26.0195 162.008 26.1797C162.008 26.3438 161.967 26.4961 161.885 26.6367C161.803 26.7734 161.691 26.8848 161.551 26.9707C161.41 27.0527 161.262 27.0938 161.105 27.0938Z" fill="white"/>
</g>
<defs>
<filter id="filter0_dd_917_7276" x="-12" y="0" width="198" height="64" filterUnits="userSpaceOnUse" color-interpolation-filters="sRGB">
<feFlood flood-opacity="0" result="BackgroundImageFix"/>
<feColorMatrix in="SourceAlpha" type="matrix" values="0 0 0 0 0 0 0 0 0 0 0 0 0 0 0 0 0 0 127 0" result="hardAlpha"/>
<feMorphology radius="2" operator="erode" in="SourceAlpha" result="effect1_dropShadow_917_7276"/>
<feOffset dy="4"/>
<feGaussianBlur stdDeviation="3"/>
<feColorMatrix type="matrix" values="0 0 0 0 0.0392157 0 0 0 0 0.0496732 0 0 0 0 0.0705882 0 0 0 0.03 0"/>
<feBlend mode="normal" in2="BackgroundImageFix" result="effect1_dropShadow_917_7276"/>
<feColorMatrix in="SourceAlpha" type="matrix" values="0 0 0 0 0 0 0 0 0 0 0 0 0 0 0 0 0 0 127 0" result="hardAlpha"/>
<feMorphology radius="4" operator="erode" in="SourceAlpha" result="effect2_dropShadow_917_7276"/>
<feOffset dy="12"/>
<feGaussianBlur stdDeviation="8"/>
<feColorMatrix type="matrix" values="0 0 0 0 0.0392157 0 0 0 0 0.0496732 0 0 0 0 0.0705882 0 0 0 0.08 0"/>
<feBlend mode="normal" in2="effect1_dropShadow_917_7276" result="effect2_dropShadow_917_7276"/>
<feBlend mode="normal" in="SourceGraphic" in2="effect2_dropShadow_917_7276" result="shape"/>
</filter>
</defs>
</svg>
