<svg width="186" height="64" viewBox="0 0 186 64" fill="none" xmlns="http://www.w3.org/2000/svg">
<g filter="url(#filter0_dd_917_7382)">
<path d="M160.071 8.51471C160.962 8.51471 161.408 7.43757 160.778 6.8076L154.707 0.736529C154.317 0.346004 153.683 0.346005 153.293 0.736529L147.222 6.8076C146.592 7.43757 147.038 8.51471 147.929 8.51471H160.071Z" fill="#363636"/>
<rect x="44" y="6" width="130" height="34" rx="8" fill="#363636"/>
<path d="M64.7559 20.9004H62.7051V19.8516H64.7559V20.9004ZM64.7266 22.998H62.6816V21.9492H64.7266V22.998ZM62.6172 19.5352H56.7051V18.498H62.6172V19.5352ZM59.7168 19.957C60.1895 19.957 60.6152 20.041 60.9941 20.209C61.373 20.373 61.666 20.6055 61.873 20.9062C62.084 21.2031 62.1895 21.543 62.1895 21.9258C62.1895 22.3164 62.084 22.6621 61.873 22.9629C61.666 23.2598 61.373 23.4902 60.9941 23.6543C60.6152 23.8184 60.1895 23.9004 59.7168 23.9004C59.2402 23.9004 58.8145 23.8184 58.4395 23.6543C58.0645 23.4902 57.7754 23.2598 57.5723 22.9629C57.3691 22.6621 57.2676 22.3164 57.2676 21.9258C57.2676 21.5391 57.3691 21.1973 57.5723 20.9004C57.7754 20.5996 58.0645 20.3672 58.4395 20.2031C58.8145 20.0391 59.2402 19.957 59.7168 19.957ZM59.7168 20.9297C59.4707 20.9297 59.2539 20.9707 59.0664 21.0527C58.8789 21.1309 58.7324 21.2441 58.627 21.3926C58.5254 21.541 58.4746 21.7188 58.4746 21.9258C58.4746 22.1328 58.5254 22.3105 58.627 22.459C58.7324 22.6074 58.877 22.7227 59.0605 22.8047C59.248 22.8828 59.4668 22.9219 59.7168 22.9219C59.9668 22.9219 60.1855 22.8828 60.373 22.8047C60.5645 22.7227 60.7129 22.6074 60.8184 22.459C60.9277 22.3105 60.9824 22.1328 60.9824 21.9258C60.9824 21.7188 60.9277 21.541 60.8184 21.3926C60.7129 21.2441 60.5645 21.1309 60.373 21.0527C60.1855 20.9707 59.9668 20.9297 59.7168 20.9297ZM60.3789 19.2129H59.0781V17.3672H60.3789V19.2129ZM65.5586 24.2285H64.2578V17.4492H65.5586V24.2285ZM62.002 24.3457C62.7441 24.3457 63.3867 24.418 63.9297 24.5625C64.4727 24.707 64.8887 24.9199 65.1777 25.2012C65.4707 25.4785 65.6172 25.8086 65.6172 26.1914C65.6172 26.5703 65.4707 26.8965 65.1777 27.1699C64.8887 27.4473 64.4707 27.6582 63.9238 27.8027C63.3809 27.9512 62.7402 28.0254 62.002 28.0254C61.2559 28.0254 60.6113 27.9512 60.0684 27.8027C59.5254 27.6582 59.1074 27.4473 58.8145 27.1699C58.5215 26.8965 58.375 26.5703 58.375 26.1914C58.375 25.8086 58.5215 25.4785 58.8145 25.2012C59.1074 24.9199 59.5254 24.707 60.0684 24.5625C60.6113 24.418 61.2559 24.3457 62.002 24.3457ZM62.002 25.3418C61.5176 25.3418 61.1074 25.373 60.7715 25.4355C60.4395 25.498 60.1836 25.5938 60.0039 25.7227C59.8281 25.8477 59.7402 26.0039 59.7402 26.1914C59.7402 26.3711 59.8281 26.5234 60.0039 26.6484C60.1836 26.7734 60.4414 26.8711 60.7773 26.9414C61.1133 27.0078 61.5215 27.041 62.002 27.041C62.4707 27.041 62.8711 27.0078 63.2031 26.9414C63.5352 26.8711 63.7871 26.7734 63.959 26.6484C64.1348 26.5234 64.2227 26.3711 64.2227 26.1914C64.2227 26.0039 64.1348 25.8477 63.959 25.7227C63.7871 25.5938 63.5371 25.498 63.209 25.4355C62.8809 25.373 62.4785 25.3418 62.002 25.3418ZM70.7559 18.9609C70.7559 19.6367 70.6367 20.2715 70.3984 20.8652C70.1602 21.459 69.8145 21.9766 69.3613 22.418C68.9082 22.8555 68.3633 23.1836 67.7266 23.4023L67.0703 22.377C67.625 22.1895 68.0977 21.9199 68.4883 21.5684C68.8828 21.2168 69.1777 20.8164 69.373 20.3672C69.5684 19.918 69.666 19.4492 69.666 18.9609V17.9473H70.7559V18.9609ZM71.0137 18.9609C71.0137 19.4375 71.1094 19.8887 71.3008 20.3145C71.4922 20.7402 71.7793 21.1172 72.1621 21.4453C72.5488 21.7734 73.0156 22.0254 73.5625 22.2012L72.9121 23.2266C72.2793 23.0156 71.7383 22.7012 71.2891 22.2832C70.8398 21.8652 70.5 21.373 70.2695 20.8066C70.0391 20.2402 69.9238 19.625 69.9238 18.9609V17.9473H71.0137V18.9609ZM75.877 28.0312H74.5703V25.3184H68.6582V24.2637H75.877V28.0312ZM75.877 23.7891H74.5703V17.4492H75.877V23.7891ZM83.582 22.4883H81.7188V21.4395H83.582V22.4883ZM86.5703 28.0312H85.3164V17.4492H86.5703V28.0312ZM84.3906 27.5332H83.1543V17.6309H84.3906V27.5332ZM79.8262 18.252C80.2949 18.252 80.7031 18.4043 81.0508 18.709C81.3984 19.0137 81.668 19.4512 81.8594 20.0215C82.0508 20.5918 82.1465 21.2617 82.1465 22.0312C82.1465 22.7969 82.0508 23.4668 81.8594 24.041C81.668 24.6113 81.3984 25.0508 81.0508 25.3594C80.7031 25.668 80.2949 25.8223 79.8262 25.8223C79.3652 25.8223 78.9609 25.668 78.6133 25.3594C78.2695 25.0508 78.002 24.6113 77.8105 24.041C77.623 23.4668 77.5293 22.7969 77.5293 22.0312C77.5293 21.2578 77.623 20.5879 77.8105 20.0215C78.002 19.4512 78.2715 19.0137 78.6191 18.709C78.9668 18.4043 79.3691 18.252 79.8262 18.252ZM79.8262 19.4824C79.5996 19.4824 79.4043 19.5801 79.2402 19.7754C79.0762 19.9707 78.9512 20.2598 78.8652 20.6426C78.7832 21.0215 78.7422 21.4844 78.7422 22.0312C78.7422 22.5742 78.7832 23.0371 78.8652 23.4199C78.9512 23.7988 79.0762 24.0859 79.2402 24.2812C79.4082 24.4766 79.6035 24.5742 79.8262 24.5742C80.0566 24.5742 80.2539 24.4766 80.418 24.2812C80.5859 24.0859 80.7148 23.7988 80.8047 23.4199C80.8945 23.0371 80.9395 22.5742 80.9395 22.0312C80.9395 21.4844 80.8945 21.0215 80.8047 20.6426C80.7148 20.2598 80.5859 19.9707 80.418 19.7754C80.2539 19.5801 80.0566 19.4824 79.8262 19.4824ZM96.0391 22.7578H91.0234V18.1465H96.0391V22.7578ZM92.3066 21.7148H94.7617V19.1895H92.3066V21.7148ZM99.0156 23.4199H97.7148V17.4492H99.0156V23.4199ZM100.498 20.9062H98.6465V19.834H100.498V20.9062ZM96.0332 24.709C96.0332 25.2559 95.873 25.7578 95.5527 26.2148C95.2324 26.668 94.7773 27.0488 94.1875 27.3574C93.5977 27.6699 92.9102 27.8789 92.125 27.9844L91.6445 27C92.3203 26.9102 92.9062 26.75 93.4023 26.5195C93.8984 26.2891 94.2773 26.0176 94.5391 25.7051C94.8047 25.3887 94.9375 25.0566 94.9375 24.709V24.4336H96.0332V24.709ZM96.3203 24.709C96.3203 25.0449 96.4531 25.3711 96.7188 25.6875C96.9844 26.0039 97.3672 26.2812 97.8672 26.5195C98.3672 26.7539 98.9492 26.918 99.6133 27.0117L99.1445 28.0078C98.3555 27.8945 97.6621 27.6816 97.0645 27.3691C96.4707 27.0566 96.0117 26.6699 95.6875 26.209C95.3633 25.748 95.2012 25.248 95.2012 24.709V24.4336H96.3203V24.709ZM99.168 24.9961H92.084V23.959H99.168V24.9961ZM104.764 20.4492C104.764 21.2461 104.639 22.0156 104.389 22.7578C104.143 23.4961 103.791 24.1543 103.334 24.7324C102.877 25.3066 102.344 25.7383 101.734 26.0273L100.979 25.002C101.521 24.748 102 24.3789 102.414 23.8945C102.828 23.4102 103.146 22.8691 103.369 22.2715C103.592 21.6699 103.703 21.0625 103.703 20.4492V19.0547H104.764V20.4492ZM105.027 20.4492C105.027 21.0391 105.137 21.6172 105.355 22.1836C105.578 22.75 105.895 23.2598 106.305 23.7129C106.719 24.1621 107.201 24.5039 107.752 24.7383L107.043 25.7637C106.418 25.4863 105.875 25.0781 105.414 24.5391C104.953 24 104.602 23.3789 104.359 22.6758C104.117 21.9688 103.996 21.2266 103.996 20.4492V19.0547H105.027V20.4492ZM107.348 19.5645H101.377V18.498H107.348V19.5645ZM109.844 28.0312H108.525V17.4492H109.844V28.0312ZM117.191 17.9941C117.727 17.9941 118.207 18.0996 118.633 18.3105C119.059 18.5176 119.393 18.8086 119.635 19.1836C119.881 19.5547 120.004 19.9766 120.004 20.4492C120.004 20.9219 119.881 21.3477 119.635 21.7266C119.393 22.1016 119.059 22.3945 118.633 22.6055C118.207 22.8125 117.727 22.918 117.191 22.9219C116.66 22.918 116.18 22.8105 115.75 22.5996C115.324 22.3887 114.988 22.0957 114.742 21.7207C114.5 21.3457 114.379 20.9219 114.379 20.4492C114.379 19.9766 114.502 19.5547 114.748 19.1836C114.994 18.8086 115.33 18.5176 115.756 18.3105C116.186 18.0996 116.664 17.9941 117.191 17.9941ZM117.191 19.0723C116.902 19.0723 116.639 19.1289 116.4 19.2422C116.166 19.3555 115.982 19.5156 115.85 19.7227C115.717 19.9297 115.65 20.1719 115.65 20.4492C115.65 20.7227 115.717 20.9668 115.85 21.1816C115.982 21.3926 116.166 21.5566 116.4 21.6738C116.639 21.791 116.902 21.8516 117.191 21.8555C117.488 21.8516 117.752 21.791 117.982 21.6738C118.213 21.5566 118.395 21.3926 118.527 21.1816C118.664 20.9668 118.732 20.7227 118.732 20.4492C118.732 20.1719 118.664 19.9297 118.527 19.7227C118.395 19.5156 118.213 19.3555 117.982 19.2422C117.752 19.1289 117.488 19.0723 117.191 19.0723ZM122.617 22.6992H121.316V17.4492H122.617V22.6992ZM124.1 20.7832H122.09V19.7168H124.1V20.7832ZM115.832 26.7129C116.305 26.709 116.752 26.6816 117.174 26.6309C117.596 26.5801 118 26.4922 118.387 26.3672L118.574 27.3867C118.148 27.5352 117.723 27.6328 117.297 27.6797C116.871 27.7266 116.383 27.75 115.832 27.75H115.275V26.7129H115.832ZM116.541 27.0527H115.275V23.7656H116.541V27.0527ZM123.543 24.75H118.211V23.7832H123.543V24.75ZM120.871 25.0371C121.27 25.0371 121.621 25.0996 121.926 25.2246C122.23 25.3496 122.469 25.5254 122.641 25.752C122.816 25.9746 122.904 26.2383 122.904 26.543C122.904 26.8398 122.816 27.0996 122.641 27.3223C122.469 27.5488 122.23 27.7227 121.926 27.8438C121.621 27.9648 121.27 28.0254 120.871 28.0254C120.469 28.0254 120.113 27.9648 119.805 27.8438C119.5 27.7227 119.264 27.5488 119.096 27.3223C118.932 27.0996 118.85 26.8398 118.85 26.543C118.85 26.2383 118.934 25.9746 119.102 25.752C119.27 25.5254 119.506 25.3496 119.811 25.2246C120.115 25.0996 120.469 25.0371 120.871 25.0371ZM120.871 25.9512C120.707 25.9512 120.559 25.9746 120.426 26.0215C120.297 26.0684 120.195 26.1367 120.121 26.2266C120.047 26.3164 120.01 26.4219 120.01 26.543C120.01 26.6602 120.047 26.7637 120.121 26.8535C120.195 26.9434 120.297 27.0117 120.426 27.0586C120.559 27.1094 120.707 27.1348 120.871 27.1348C121.043 27.1348 121.191 27.1094 121.316 27.0586C121.445 27.0117 121.545 26.9434 121.615 26.8535C121.689 26.7637 121.727 26.6602 121.727 26.543C121.727 26.4219 121.689 26.3164 121.615 26.2266C121.545 26.1367 121.445 26.0684 121.316 26.0215C121.191 25.9746 121.043 25.9512 120.871 25.9512ZM121.527 24.5215H120.256V22.9746H121.527V24.5215ZM127.088 24.8145H131.746V23.8008H133.047V27.9082H125.793V23.8008H127.088V24.8145ZM131.746 26.8828V25.8105H127.088V26.8828H131.746ZM134.283 23.1973H124.639V22.1426H134.283V23.1973ZM129.918 17.9648C129.918 18.5625 129.734 19.1172 129.367 19.6289C129 20.1367 128.49 20.5605 127.838 20.9004C127.186 21.2402 126.443 21.4668 125.611 21.5801L125.131 20.5547C125.85 20.4648 126.488 20.291 127.047 20.0332C127.605 19.7715 128.035 19.4609 128.336 19.1016C128.641 18.7383 128.793 18.3594 128.793 17.9648V17.5605H129.918V17.9648ZM130.135 17.9648C130.135 18.3516 130.287 18.7266 130.592 19.0898C130.896 19.4531 131.326 19.7676 131.881 20.0332C132.439 20.2988 133.072 20.4727 133.779 20.5547L133.316 21.5801C132.48 21.4668 131.734 21.2383 131.078 20.8945C130.426 20.5508 129.918 20.127 129.555 19.623C129.191 19.1152 129.01 18.5625 129.01 17.9648V17.5605H130.135V17.9648ZM143.846 28.0312H142.551V17.4492H143.846V28.0312ZM136.902 25.0371H135.613V18.4746H136.902V25.0371ZM136.521 24.2754C137.365 24.2754 138.211 24.2383 139.059 24.1641C139.906 24.0859 140.752 23.9629 141.596 23.7949L141.766 24.8789C140.887 25.0586 140.016 25.1875 139.152 25.2656C138.289 25.3438 137.412 25.3828 136.521 25.3828H135.613V24.2754H136.521ZM153.672 28.0605H152.371V17.4492H153.672V28.0605ZM155.307 22.541H153.379V21.4688H155.307V22.541ZM146.682 24.3809C147.662 24.3848 148.523 24.3613 149.266 24.3105C150.012 24.2598 150.764 24.166 151.521 24.0293L151.668 25.1309C150.902 25.2676 150.143 25.3574 149.389 25.4004C148.639 25.4434 147.736 25.4629 146.682 25.459H145.809V24.3809H146.682ZM150.766 19.5117H147.109V24.9082H145.809V18.4512H150.766V19.5117ZM157.035 27.0938C156.871 27.0938 156.719 27.0527 156.578 26.9707C156.438 26.8848 156.326 26.7734 156.244 26.6367C156.166 26.4961 156.127 26.3438 156.127 26.1797C156.127 26.0195 156.166 25.8711 156.244 25.7344C156.326 25.5938 156.438 25.4844 156.578 25.4062C156.719 25.3242 156.871 25.2832 157.035 25.2832C157.191 25.2832 157.34 25.3242 157.48 25.4062C157.621 25.4844 157.732 25.5938 157.814 25.7344C157.896 25.8711 157.938 26.0195 157.938 26.1797C157.938 26.3438 157.896 26.4961 157.814 26.6367C157.732 26.7734 157.621 26.8848 157.48 26.9707C157.34 27.0527 157.191 27.0938 157.035 27.0938Z" fill="white"/>
</g>
<defs>
<filter id="filter0_dd_917_7382" x="-12" y="0" width="198" height="64" filterUnits="userSpaceOnUse" color-interpolation-filters="sRGB">
<feFlood flood-opacity="0" result="BackgroundImageFix"/>
<feColorMatrix in="SourceAlpha" type="matrix" values="0 0 0 0 0 0 0 0 0 0 0 0 0 0 0 0 0 0 127 0" result="hardAlpha"/>
<feMorphology radius="2" operator="erode" in="SourceAlpha" result="effect1_dropShadow_917_7382"/>
<feOffset dy="4"/>
<feGaussianBlur stdDeviation="3"/>
<feColorMatrix type="matrix" values="0 0 0 0 0.0392157 0 0 0 0 0.0496732 0 0 0 0 0.0705882 0 0 0 0.03 0"/>
<feBlend mode="normal" in2="BackgroundImageFix" result="effect1_dropShadow_917_7382"/>
<feColorMatrix in="SourceAlpha" type="matrix" values="0 0 0 0 0 0 0 0 0 0 0 0 0 0 0 0 0 0 127 0" result="hardAlpha"/>
<feMorphology radius="4" operator="erode" in="SourceAlpha" result="effect2_dropShadow_917_7382"/>
<feOffset dy="12"/>
<feGaussianBlur stdDeviation="8"/>
<feColorMatrix type="matrix" values="0 0 0 0 0.0392157 0 0 0 0 0.0496732 0 0 0 0 0.0705882 0 0 0 0.08 0"/>
<feBlend mode="normal" in2="effect1_dropShadow_917_7382" result="effect2_dropShadow_917_7382"/>
<feBlend mode="normal" in="SourceGraphic" in2="effect2_dropShadow_917_7382" result="shape"/>
</filter>
</defs>
</svg>
