<svg width="189" height="64" viewBox="0 0 189 64" fill="none" xmlns="http://www.w3.org/2000/svg">
<g filter="url(#filter0_dd_917_7488)">
<path d="M163.071 8.51471C163.962 8.51471 164.408 7.43757 163.778 6.8076L157.707 0.736529C157.317 0.346004 156.683 0.346005 156.293 0.736529L150.222 6.8076C149.592 7.43757 150.038 8.51471 150.929 8.51471H163.071Z" fill="#363636"/>
<rect x="12" y="6" width="165" height="34" rx="8" fill="#363636"/>
<path d="M33.2578 28.0605H31.9395V17.4492H33.2578V28.0605ZM26.3027 20.9648H28.875V18.3164H30.1582V25.5586H25.0078V18.3164H26.3027V20.9648ZM28.875 24.4922V21.9844H26.3027V24.4922H28.875ZM40.459 22.418H35.3613V18H40.459V22.418ZM36.6387 21.4043H39.1758V19.043H36.6387V21.4043ZM43.623 22.8398H42.3281V17.4492H43.623V22.8398ZM43.623 26.0625H37.9102V27.3047H36.6211V25.125H42.3457V24.334H36.6152V23.3145H43.623V26.0625ZM43.9395 27.9492H36.6211V26.9121H43.9395V27.9492ZM53.0977 21.3809H50.2383V20.3203H53.0977V21.3809ZM54.0586 25.2773H52.7578V17.4609H54.0586V25.2773ZM54.2871 27.8438H47.0742V26.7773H54.2871V27.8438ZM48.3984 27.3574H47.0742V24.5039H48.3984V27.3574ZM46.9746 19.8633H49.3418V18.1582H50.625V23.5605H45.668V18.1582H46.9746V19.8633ZM49.3418 22.5234V20.8652H46.9746V22.5234H49.3418ZM64.752 19.9219H55.9922V18.8672H64.752V19.9219ZM65.2441 26.9062H55.5645V25.8516H65.2441V26.9062ZM61.0137 26.2559H59.7305V24.3281H61.0137V26.2559ZM60.375 20.4668C61.0977 20.4629 61.7266 20.543 62.2617 20.707C62.8008 20.8672 63.2148 21.0996 63.5039 21.4043C63.793 21.709 63.9375 22.0742 63.9375 22.5C63.9375 22.9297 63.793 23.2988 63.5039 23.6074C63.2148 23.916 62.8027 24.1543 62.2676 24.3223C61.7363 24.4863 61.1055 24.5703 60.375 24.5742C59.6406 24.5703 59.0039 24.4863 58.4648 24.3223C57.9297 24.1582 57.5176 23.9219 57.2285 23.6133C56.9434 23.3008 56.8008 22.9297 56.8008 22.5C56.8008 22.0742 56.9434 21.709 57.2285 21.4043C57.5176 21.0996 57.9297 20.8672 58.4648 20.707C59.0039 20.543 59.6406 20.4629 60.375 20.4668ZM60.375 21.4863C59.8906 21.4863 59.4824 21.5234 59.1504 21.5977C58.8184 21.6719 58.5664 21.7852 58.3945 21.9375C58.2227 22.0898 58.1367 22.2773 58.1367 22.5C58.1367 22.7227 58.2227 22.9102 58.3945 23.0625C58.5664 23.2148 58.8184 23.3301 59.1504 23.4082C59.4824 23.4824 59.8906 23.5215 60.375 23.5254C60.8555 23.5215 61.2598 23.4824 61.5879 23.4082C61.916 23.3301 62.166 23.2148 62.3379 23.0625C62.5137 22.9102 62.6016 22.7227 62.6016 22.5C62.6016 22.2773 62.5137 22.0898 62.3379 21.9375C62.166 21.7852 61.9141 21.6719 61.582 21.5977C61.25 21.5234 60.8477 21.4863 60.375 21.4863ZM61.0137 19.5176H59.7305V17.584H61.0137V19.5176ZM69.7617 25.3066H68.4609V22.8047H69.7617V25.3066ZM69.0938 18.0996C69.6367 18.0996 70.125 18.209 70.5586 18.4277C70.9961 18.6426 71.3398 18.9453 71.5898 19.3359C71.8438 19.7227 71.9707 20.1641 71.9707 20.6602C71.9707 21.1562 71.8438 21.5977 71.5898 21.9844C71.3398 22.3672 70.9961 22.668 70.5586 22.8867C70.125 23.1055 69.6367 23.2148 69.0938 23.2148C68.543 23.2148 68.0488 23.1055 67.6113 22.8867C67.1738 22.668 66.832 22.3672 66.5859 21.9844C66.3398 21.5977 66.2168 21.1562 66.2168 20.6602C66.2168 20.1641 66.3398 19.7227 66.5859 19.3359C66.832 18.9453 67.1738 18.6426 67.6113 18.4277C68.0488 18.209 68.543 18.0996 69.0938 18.0996ZM69.0938 19.2129C68.7852 19.2129 68.5098 19.2715 68.2676 19.3887C68.0254 19.5059 67.834 19.6758 67.6934 19.8984C67.5566 20.1172 67.4883 20.3711 67.4883 20.6602C67.4883 20.9492 67.5566 21.2031 67.6934 21.4219C67.834 21.6406 68.0254 21.8105 68.2676 21.9316C68.5137 22.0488 68.7891 22.1074 69.0938 22.1074C69.3984 22.1074 69.6699 22.0488 69.9082 21.9316C70.1504 21.8105 70.3398 21.6406 70.4766 21.4219C70.6172 21.2031 70.6875 20.9492 70.6875 20.6602C70.6875 20.3711 70.6172 20.1172 70.4766 19.8984C70.3398 19.6797 70.1523 19.5117 69.9141 19.3945C69.6758 19.2734 69.4023 19.2129 69.0938 19.2129ZM74.2617 28.0312H72.9609V17.4492H74.2617V28.0312ZM75.7969 22.7812H73.875V21.6738H75.7969V22.7812ZM65.8066 24.791C66.7637 24.7871 67.5547 24.7793 68.1797 24.7676C68.8086 24.7559 69.498 24.7305 70.248 24.6914C70.998 24.6484 71.7012 24.582 72.3574 24.4922L72.4453 25.459C71.7617 25.584 71.0469 25.6777 70.3008 25.7402C69.5547 25.7988 68.8438 25.834 68.168 25.8457C67.4922 25.8535 66.7656 25.8574 65.9883 25.8574L65.8066 24.791ZM82.166 17.7891C82.6973 17.7891 83.1758 17.8926 83.6016 18.0996C84.0273 18.3027 84.3594 18.5859 84.5977 18.9492C84.8398 19.3125 84.9609 19.7227 84.9609 20.1797C84.9609 20.6367 84.8398 21.0469 84.5977 21.4102C84.3594 21.7734 84.0273 22.0586 83.6016 22.2656C83.1758 22.4688 82.6973 22.5703 82.166 22.5703C81.6309 22.5703 81.1484 22.4688 80.7188 22.2656C80.293 22.0586 79.959 21.7734 79.7168 21.4102C79.4746 21.0469 79.3535 20.6367 79.3535 20.1797C79.3535 19.7227 79.4746 19.3125 79.7168 18.9492C79.959 18.5859 80.293 18.3027 80.7188 18.0996C81.1484 17.8926 81.6309 17.7891 82.166 17.7891ZM82.166 18.8613C81.8691 18.8613 81.6035 18.916 81.3691 19.0254C81.1348 19.1309 80.9512 19.2852 80.8184 19.4883C80.6895 19.6875 80.625 19.918 80.625 20.1797C80.625 20.4453 80.6895 20.6797 80.8184 20.8828C80.9512 21.0859 81.1348 21.2422 81.3691 21.3516C81.6035 21.457 81.8691 21.5117 82.166 21.5156C82.4629 21.5117 82.7266 21.457 82.957 21.3516C83.1914 21.2422 83.375 21.0859 83.5078 20.8828C83.6406 20.6797 83.707 20.4453 83.707 20.1797C83.707 19.918 83.6406 19.6875 83.5078 19.4883C83.375 19.2852 83.1914 19.1309 82.957 19.0254C82.7266 18.916 82.4629 18.8613 82.166 18.8613ZM87.9785 22.8047H86.6719V17.4492H87.9785V22.8047ZM87.9785 26.0332H82.248V27.4277H80.9766V25.0723H86.6777V24.2812H80.9531V23.2617H87.9785V26.0332ZM88.2949 27.9082H80.9766V26.8828H88.2949V27.9082ZM98.3379 28.0312H97.0254V17.4492H98.3379V28.0312ZM93.3398 20.8125C93.3398 21.5664 93.2188 22.291 92.9766 22.9863C92.7383 23.6816 92.3926 24.2969 91.9395 24.832C91.4863 25.3672 90.9531 25.7695 90.3398 26.0391L89.6426 25.0312C90.1895 24.7891 90.6621 24.4453 91.0605 24C91.4629 23.5508 91.7695 23.0508 91.9805 22.5C92.1914 21.9453 92.2969 21.3828 92.2969 20.8125V20.0977H93.3398V20.8125ZM93.5918 20.8125C93.5918 21.3594 93.6992 21.9004 93.9141 22.4355C94.1289 22.9668 94.4414 23.4453 94.8516 23.8711C95.2617 24.2969 95.7422 24.627 96.293 24.8613L95.584 25.8633C94.9707 25.6016 94.4355 25.2129 93.9785 24.6973C93.5254 24.1816 93.1758 23.5879 92.9297 22.916C92.6836 22.2402 92.5605 21.5391 92.5605 20.8125V20.0977H93.5918V20.8125ZM95.8828 20.2617H89.9707V19.2188H95.8828V20.2617ZM93.5859 19.7754H92.2852V17.6777H93.5859V19.7754ZM108.199 28.0312H106.91V17.4492H108.199V28.0312ZM109.834 22.7461H107.906V21.6738H109.834V22.7461ZM106.09 20.1211H99.8496V19.0723H106.09V20.1211ZM103.002 20.8066C103.514 20.8066 103.971 20.9141 104.373 21.1289C104.779 21.3398 105.098 21.6348 105.328 22.0137C105.559 22.3926 105.674 22.8223 105.674 23.3027C105.674 23.7793 105.559 24.209 105.328 24.5918C105.098 24.9707 104.779 25.2656 104.373 25.4766C103.971 25.6875 103.514 25.793 103.002 25.793C102.494 25.793 102.037 25.6875 101.631 25.4766C101.225 25.2656 100.906 24.9707 100.676 24.5918C100.449 24.209 100.336 23.7793 100.336 23.3027C100.336 22.8223 100.449 22.3926 100.676 22.0137C100.906 21.6348 101.225 21.3398 101.631 21.1289C102.037 20.9141 102.494 20.8066 103.002 20.8066ZM103.002 21.8789C102.732 21.8789 102.488 21.9375 102.27 22.0547C102.055 22.1719 101.885 22.3379 101.76 22.5527C101.639 22.7676 101.578 23.0176 101.578 23.3027C101.578 23.584 101.639 23.832 101.76 24.0469C101.885 24.2617 102.055 24.4277 102.27 24.5449C102.488 24.6582 102.732 24.7148 103.002 24.7148C103.279 24.7148 103.525 24.6582 103.74 24.5449C103.955 24.4277 104.123 24.2617 104.244 24.0469C104.365 23.832 104.426 23.584 104.426 23.3027C104.426 23.0176 104.365 22.7676 104.244 22.5527C104.123 22.3379 103.955 22.1719 103.74 22.0547C103.525 21.9375 103.279 21.8789 103.002 21.8789ZM103.646 19.4941H102.352V17.6016H103.646V19.4941ZM114.006 20.4492C114.006 21.2461 113.881 22.0156 113.631 22.7578C113.385 23.4961 113.033 24.1543 112.576 24.7324C112.119 25.3066 111.586 25.7383 110.977 26.0273L110.221 25.002C110.764 24.748 111.242 24.3789 111.656 23.8945C112.07 23.4102 112.389 22.8691 112.611 22.2715C112.834 21.6699 112.945 21.0625 112.945 20.4492V19.0547H114.006V20.4492ZM114.27 20.4492C114.27 21.0391 114.379 21.6172 114.598 22.1836C114.82 22.75 115.137 23.2598 115.547 23.7129C115.961 24.1621 116.443 24.5039 116.994 24.7383L116.285 25.7637C115.66 25.4863 115.117 25.0781 114.656 24.5391C114.195 24 113.844 23.3789 113.602 22.6758C113.359 21.9688 113.238 21.2266 113.238 20.4492V19.0547H114.27V20.4492ZM116.59 19.5645H110.619V18.498H116.59V19.5645ZM119.086 28.0312H117.768V17.4492H119.086V28.0312ZM126.434 17.9941C126.969 17.9941 127.449 18.0996 127.875 18.3105C128.301 18.5176 128.635 18.8086 128.877 19.1836C129.123 19.5547 129.246 19.9766 129.246 20.4492C129.246 20.9219 129.123 21.3477 128.877 21.7266C128.635 22.1016 128.301 22.3945 127.875 22.6055C127.449 22.8125 126.969 22.918 126.434 22.9219C125.902 22.918 125.422 22.8105 124.992 22.5996C124.566 22.3887 124.23 22.0957 123.984 21.7207C123.742 21.3457 123.621 20.9219 123.621 20.4492C123.621 19.9766 123.744 19.5547 123.99 19.1836C124.236 18.8086 124.572 18.5176 124.998 18.3105C125.428 18.0996 125.906 17.9941 126.434 17.9941ZM126.434 19.0723C126.145 19.0723 125.881 19.1289 125.643 19.2422C125.408 19.3555 125.225 19.5156 125.092 19.7227C124.959 19.9297 124.893 20.1719 124.893 20.4492C124.893 20.7227 124.959 20.9668 125.092 21.1816C125.225 21.3926 125.408 21.5566 125.643 21.6738C125.881 21.791 126.145 21.8516 126.434 21.8555C126.73 21.8516 126.994 21.791 127.225 21.6738C127.455 21.5566 127.637 21.3926 127.77 21.1816C127.906 20.9668 127.975 20.7227 127.975 20.4492C127.975 20.1719 127.906 19.9297 127.77 19.7227C127.637 19.5156 127.455 19.3555 127.225 19.2422C126.994 19.1289 126.73 19.0723 126.434 19.0723ZM131.859 22.6992H130.559V17.4492H131.859V22.6992ZM133.342 20.7832H131.332V19.7168H133.342V20.7832ZM125.074 26.7129C125.547 26.709 125.994 26.6816 126.416 26.6309C126.838 26.5801 127.242 26.4922 127.629 26.3672L127.816 27.3867C127.391 27.5352 126.965 27.6328 126.539 27.6797C126.113 27.7266 125.625 27.75 125.074 27.75H124.518V26.7129H125.074ZM125.783 27.0527H124.518V23.7656H125.783V27.0527ZM132.785 24.75H127.453V23.7832H132.785V24.75ZM130.113 25.0371C130.512 25.0371 130.863 25.0996 131.168 25.2246C131.473 25.3496 131.711 25.5254 131.883 25.752C132.059 25.9746 132.146 26.2383 132.146 26.543C132.146 26.8398 132.059 27.0996 131.883 27.3223C131.711 27.5488 131.473 27.7227 131.168 27.8438C130.863 27.9648 130.512 28.0254 130.113 28.0254C129.711 28.0254 129.355 27.9648 129.047 27.8438C128.742 27.7227 128.506 27.5488 128.338 27.3223C128.174 27.0996 128.092 26.8398 128.092 26.543C128.092 26.2383 128.176 25.9746 128.344 25.752C128.512 25.5254 128.748 25.3496 129.053 25.2246C129.357 25.0996 129.711 25.0371 130.113 25.0371ZM130.113 25.9512C129.949 25.9512 129.801 25.9746 129.668 26.0215C129.539 26.0684 129.438 26.1367 129.363 26.2266C129.289 26.3164 129.252 26.4219 129.252 26.543C129.252 26.6602 129.289 26.7637 129.363 26.8535C129.438 26.9434 129.539 27.0117 129.668 27.0586C129.801 27.1094 129.949 27.1348 130.113 27.1348C130.285 27.1348 130.434 27.1094 130.559 27.0586C130.688 27.0117 130.787 26.9434 130.857 26.8535C130.932 26.7637 130.969 26.6602 130.969 26.543C130.969 26.4219 130.932 26.3164 130.857 26.2266C130.787 26.1367 130.688 26.0684 130.559 26.0215C130.434 25.9746 130.285 25.9512 130.113 25.9512ZM130.77 24.5215H129.498V22.9746H130.77V24.5215ZM136.33 24.8145H140.988V23.8008H142.289V27.9082H135.035V23.8008H136.33V24.8145ZM140.988 26.8828V25.8105H136.33V26.8828H140.988ZM143.525 23.1973H133.881V22.1426H143.525V23.1973ZM139.16 17.9648C139.16 18.5625 138.977 19.1172 138.609 19.6289C138.242 20.1367 137.732 20.5605 137.08 20.9004C136.428 21.2402 135.686 21.4668 134.854 21.5801L134.373 20.5547C135.092 20.4648 135.73 20.291 136.289 20.0332C136.848 19.7715 137.277 19.4609 137.578 19.1016C137.883 18.7383 138.035 18.3594 138.035 17.9648V17.5605H139.16V17.9648ZM139.377 17.9648C139.377 18.3516 139.529 18.7266 139.834 19.0898C140.139 19.4531 140.568 19.7676 141.123 20.0332C141.682 20.2988 142.314 20.4727 143.021 20.5547L142.559 21.5801C141.723 21.4668 140.977 21.2383 140.32 20.8945C139.668 20.5508 139.16 20.127 138.797 19.623C138.434 19.1152 138.252 18.5625 138.252 17.9648V17.5605H139.377V17.9648ZM153.088 28.0312H151.793V17.4492H153.088V28.0312ZM146.145 25.0371H144.855V18.4746H146.145V25.0371ZM145.764 24.2754C146.607 24.2754 147.453 24.2383 148.301 24.1641C149.148 24.0859 149.994 23.9629 150.838 23.7949L151.008 24.8789C150.129 25.0586 149.258 25.1875 148.395 25.2656C147.531 25.3438 146.654 25.3828 145.764 25.3828H144.855V24.2754H145.764ZM162.914 28.0605H161.613V17.4492H162.914V28.0605ZM164.549 22.541H162.621V21.4688H164.549V22.541ZM155.924 24.3809C156.904 24.3848 157.766 24.3613 158.508 24.3105C159.254 24.2598 160.006 24.166 160.764 24.0293L160.91 25.1309C160.145 25.2676 159.385 25.3574 158.631 25.4004C157.881 25.4434 156.979 25.4629 155.924 25.459H155.051V24.3809H155.924ZM160.008 19.5117H156.352V24.9082H155.051V18.4512H160.008V19.5117ZM166.277 27.0938C166.113 27.0938 165.961 27.0527 165.82 26.9707C165.68 26.8848 165.568 26.7734 165.486 26.6367C165.408 26.4961 165.369 26.3438 165.369 26.1797C165.369 26.0195 165.408 25.8711 165.486 25.7344C165.568 25.5938 165.68 25.4844 165.82 25.4062C165.961 25.3242 166.113 25.2832 166.277 25.2832C166.434 25.2832 166.582 25.3242 166.723 25.4062C166.863 25.4844 166.975 25.5938 167.057 25.7344C167.139 25.8711 167.18 26.0195 167.18 26.1797C167.18 26.3438 167.139 26.4961 167.057 26.6367C166.975 26.7734 166.863 26.8848 166.723 26.9707C166.582 27.0527 166.434 27.0938 166.277 27.0938Z" fill="white"/>
</g>
<defs>
<filter id="filter0_dd_917_7488" x="-9" y="0" width="198" height="64" filterUnits="userSpaceOnUse" color-interpolation-filters="sRGB">
<feFlood flood-opacity="0" result="BackgroundImageFix"/>
<feColorMatrix in="SourceAlpha" type="matrix" values="0 0 0 0 0 0 0 0 0 0 0 0 0 0 0 0 0 0 127 0" result="hardAlpha"/>
<feMorphology radius="2" operator="erode" in="SourceAlpha" result="effect1_dropShadow_917_7488"/>
<feOffset dy="4"/>
<feGaussianBlur stdDeviation="3"/>
<feColorMatrix type="matrix" values="0 0 0 0 0.0392157 0 0 0 0 0.0496732 0 0 0 0 0.0705882 0 0 0 0.03 0"/>
<feBlend mode="normal" in2="BackgroundImageFix" result="effect1_dropShadow_917_7488"/>
<feColorMatrix in="SourceAlpha" type="matrix" values="0 0 0 0 0 0 0 0 0 0 0 0 0 0 0 0 0 0 127 0" result="hardAlpha"/>
<feMorphology radius="4" operator="erode" in="SourceAlpha" result="effect2_dropShadow_917_7488"/>
<feOffset dy="12"/>
<feGaussianBlur stdDeviation="8"/>
<feColorMatrix type="matrix" values="0 0 0 0 0.0392157 0 0 0 0 0.0496732 0 0 0 0 0.0705882 0 0 0 0.08 0"/>
<feBlend mode="normal" in2="effect1_dropShadow_917_7488" result="effect2_dropShadow_917_7488"/>
<feBlend mode="normal" in="SourceGraphic" in2="effect2_dropShadow_917_7488" result="shape"/>
</filter>
</defs>
</svg>
